<mxfile host="app.diagrams.net" modified="2023-11-17T06:53:11.130Z" agent="Mozilla/5.0 (Macintosh; Intel Mac OS X 10_15_7) AppleWebKit/537.36 (KHTML, like Gecko) Chrome/119.0.0.0 Safari/537.36" etag="15oeyCz9Jfw2XMeA3dvv" version="22.1.2" type="device">
  <diagram name="第 1 页" id="FdudyYQiU0rZb9IzjOoY">
    <mxGraphModel dx="1973" dy="704" grid="1" gridSize="10" guides="1" tooltips="1" connect="1" arrows="1" fold="1" page="1" pageScale="1" pageWidth="827" pageHeight="1169" math="0" shadow="0">
      <root>
        <mxCell id="0" />
        <mxCell id="1" parent="0" />
        <mxCell id="0KrwKSaNheqhKAbCfdgy-14" style="edgeStyle=orthogonalEdgeStyle;rounded=0;orthogonalLoop=1;jettySize=auto;html=1;entryX=0.5;entryY=0;entryDx=0;entryDy=0;" edge="1" parent="1" source="0KrwKSaNheqhKAbCfdgy-1" target="0KrwKSaNheqhKAbCfdgy-13">
          <mxGeometry relative="1" as="geometry" />
        </mxCell>
        <mxCell id="0KrwKSaNheqhKAbCfdgy-1" value="&lt;font style=&quot;font-size: 18px;&quot;&gt;调度服务&lt;/font&gt;" style="rounded=1;whiteSpace=wrap;html=1;" vertex="1" parent="1">
          <mxGeometry x="340" y="600" width="120" height="60" as="geometry" />
        </mxCell>
        <mxCell id="0KrwKSaNheqhKAbCfdgy-5" style="edgeStyle=orthogonalEdgeStyle;rounded=0;orthogonalLoop=1;jettySize=auto;html=1;entryX=0.5;entryY=0;entryDx=0;entryDy=0;" edge="1" parent="1" source="0KrwKSaNheqhKAbCfdgy-3" target="0KrwKSaNheqhKAbCfdgy-4">
          <mxGeometry relative="1" as="geometry">
            <Array as="points">
              <mxPoint x="180" y="380" />
              <mxPoint x="-35" y="380" />
            </Array>
          </mxGeometry>
        </mxCell>
        <mxCell id="0KrwKSaNheqhKAbCfdgy-3" value="&lt;font style=&quot;font-size: 18px;&quot;&gt;CDN console&lt;/font&gt;" style="rounded=1;whiteSpace=wrap;html=1;" vertex="1" parent="1">
          <mxGeometry x="120" y="260" width="120" height="60" as="geometry" />
        </mxCell>
        <mxCell id="0KrwKSaNheqhKAbCfdgy-7" style="edgeStyle=orthogonalEdgeStyle;rounded=0;orthogonalLoop=1;jettySize=auto;html=1;entryX=0;entryY=0.5;entryDx=0;entryDy=0;" edge="1" parent="1" source="0KrwKSaNheqhKAbCfdgy-4" target="0KrwKSaNheqhKAbCfdgy-1">
          <mxGeometry relative="1" as="geometry">
            <Array as="points">
              <mxPoint x="110" y="630" />
            </Array>
          </mxGeometry>
        </mxCell>
        <mxCell id="0KrwKSaNheqhKAbCfdgy-25" style="edgeStyle=orthogonalEdgeStyle;rounded=0;orthogonalLoop=1;jettySize=auto;html=1;entryX=0;entryY=0.5;entryDx=0;entryDy=0;" edge="1" parent="1" source="0KrwKSaNheqhKAbCfdgy-4" target="0KrwKSaNheqhKAbCfdgy-16">
          <mxGeometry relative="1" as="geometry">
            <Array as="points">
              <mxPoint x="-30" y="1080" />
            </Array>
          </mxGeometry>
        </mxCell>
        <mxCell id="0KrwKSaNheqhKAbCfdgy-4" value="&lt;font style=&quot;font-size: 18px;&quot;&gt;kConf&lt;/font&gt;" style="shape=datastore;whiteSpace=wrap;html=1;" vertex="1" parent="1">
          <mxGeometry x="-80" y="570" width="90" height="110" as="geometry" />
        </mxCell>
        <mxCell id="0KrwKSaNheqhKAbCfdgy-8" value="&lt;font style=&quot;font-size: 14px;&quot;&gt;OC的调度配置&lt;br&gt;自建点播：cdn.dispatch.ocDispatchVodSrv&lt;br&gt;自建直播：cdn.dispatch.ocDispatchLiveSrv&lt;/font&gt;" style="text;html=1;align=center;verticalAlign=middle;resizable=0;points=[];autosize=1;strokeColor=none;fillColor=none;" vertex="1" parent="1">
          <mxGeometry x="-380" y="555" width="290" height="60" as="geometry" />
        </mxCell>
        <mxCell id="0KrwKSaNheqhKAbCfdgy-12" style="edgeStyle=orthogonalEdgeStyle;rounded=0;orthogonalLoop=1;jettySize=auto;html=1;entryX=0.5;entryY=0;entryDx=0;entryDy=0;" edge="1" parent="1" source="0KrwKSaNheqhKAbCfdgy-10" target="0KrwKSaNheqhKAbCfdgy-1">
          <mxGeometry relative="1" as="geometry" />
        </mxCell>
        <mxCell id="0KrwKSaNheqhKAbCfdgy-10" value="&lt;font style=&quot;font-size: 18px;&quot;&gt;自建CDN带宽上报服务&lt;br style=&quot;border-color: var(--border-color);&quot;&gt;dispatch-data-query&lt;/font&gt;" style="rounded=1;whiteSpace=wrap;html=1;" vertex="1" parent="1">
          <mxGeometry x="295" y="255" width="210" height="70" as="geometry" />
        </mxCell>
        <mxCell id="0KrwKSaNheqhKAbCfdgy-11" value="&lt;font style=&quot;font-size: 14px;&quot;&gt;HTTP 接口&lt;br&gt;GET：/ocstate/v2/getocinfo&lt;br&gt;GET：/ocstate/v2/getocinfo/enetBandwidths&lt;/font&gt;" style="text;html=1;align=left;verticalAlign=middle;resizable=0;points=[];autosize=1;strokeColor=none;fillColor=none;" vertex="1" parent="1">
          <mxGeometry x="520" y="260" width="300" height="60" as="geometry" />
        </mxCell>
        <mxCell id="0KrwKSaNheqhKAbCfdgy-17" style="edgeStyle=orthogonalEdgeStyle;rounded=0;orthogonalLoop=1;jettySize=auto;html=1;" edge="1" parent="1" source="0KrwKSaNheqhKAbCfdgy-13" target="0KrwKSaNheqhKAbCfdgy-16">
          <mxGeometry relative="1" as="geometry" />
        </mxCell>
        <mxCell id="0KrwKSaNheqhKAbCfdgy-13" value="&lt;font style=&quot;font-size: 18px;&quot;&gt;调度表服务&lt;/font&gt;" style="rounded=1;whiteSpace=wrap;html=1;" vertex="1" parent="1">
          <mxGeometry x="340" y="820" width="120" height="60" as="geometry" />
        </mxCell>
        <mxCell id="0KrwKSaNheqhKAbCfdgy-15" value="&lt;font style=&quot;font-size: 14px;&quot;&gt;RPC接口：UpdateSelfDispatchTable&lt;/font&gt;" style="text;html=1;align=center;verticalAlign=middle;resizable=0;points=[];autosize=1;strokeColor=none;fillColor=none;" vertex="1" parent="1">
          <mxGeometry x="404" y="710" width="250" height="30" as="geometry" />
        </mxCell>
        <mxCell id="0KrwKSaNheqhKAbCfdgy-16" value="&lt;font style=&quot;font-size: 18px;&quot;&gt;调度 SDK&lt;/font&gt;" style="rounded=1;whiteSpace=wrap;html=1;" vertex="1" parent="1">
          <mxGeometry x="340" y="1050" width="120" height="60" as="geometry" />
        </mxCell>
        <mxCell id="0KrwKSaNheqhKAbCfdgy-18" value="&lt;font style=&quot;font-size: 14px;&quot;&gt;自建：RPC接口：getSelfDispatchTable&lt;/font&gt;" style="text;html=1;align=center;verticalAlign=middle;resizable=0;points=[];autosize=1;strokeColor=none;fillColor=none;" vertex="1" parent="1">
          <mxGeometry x="404" y="940" width="270" height="30" as="geometry" />
        </mxCell>
        <mxCell id="0KrwKSaNheqhKAbCfdgy-21" value="&lt;font style=&quot;font-size: 14px;&quot;&gt;三方产品的调度配置&lt;br&gt;confKey：cdn.unitedDispatchTable.*&lt;/font&gt;" style="text;html=1;align=center;verticalAlign=middle;resizable=0;points=[];autosize=1;strokeColor=none;fillColor=none;" vertex="1" parent="1">
          <mxGeometry x="-340" y="630" width="250" height="50" as="geometry" />
        </mxCell>
        <mxCell id="0KrwKSaNheqhKAbCfdgy-23" value="三方" style="text;html=1;align=center;verticalAlign=middle;resizable=0;points=[];autosize=1;strokeColor=none;fillColor=none;" vertex="1" parent="1">
          <mxGeometry x="180" y="1050" width="50" height="30" as="geometry" />
        </mxCell>
      </root>
    </mxGraphModel>
  </diagram>
</mxfile>
